<?xml version="1.0" encoding="UTF-8" standalone="no"?>
<svg
   xmlns:dc="http://purl.org/dc/elements/1.1/"
   xmlns:cc="http://creativecommons.org/ns#"
   xmlns:rdf="http://www.w3.org/1999/02/22-rdf-syntax-ns#"
   xmlns:svg="http://www.w3.org/2000/svg"
   xmlns="http://www.w3.org/2000/svg"
   xmlns:sodipodi="http://sodipodi.sourceforge.net/DTD/sodipodi-0.dtd"
   xmlns:inkscape="http://www.inkscape.org/namespaces/inkscape"
   viewBox="0 0 862.40002 457.88"
   height="457.88"
   width="862.40002"
   xml:space="preserve"
   id="svg2"
   version="1.1"
   sodipodi:docname="Lisa_Michael_White.svg"
   inkscape:version="0.92.3 (2405546, 2018-03-11)"><sodipodi:namedview
     pagecolor="#ffffff"
     bordercolor="#666666"
     borderopacity="1"
     objecttolerance="10"
     gridtolerance="10"
     guidetolerance="10"
     inkscape:pageopacity="0"
     inkscape:pageshadow="2"
     inkscape:window-width="2304"
     inkscape:window-height="1202"
     id="namedview4540"
     showgrid="false"
     inkscape:zoom="2.0698051"
     inkscape:cx="432.16629"
     inkscape:cy="228.94"
     inkscape:window-x="-11"
     inkscape:window-y="-11"
     inkscape:window-maximized="1"
     inkscape:current-layer="g12" /><metadata
     id="metadata8"><rdf:RDF><cc:Work
         rdf:about=""><dc:format>image/svg+xml</dc:format><dc:type
           rdf:resource="http://purl.org/dc/dcmitype/StillImage" /><dc:title></dc:title></cc:Work></rdf:RDF></metadata><defs
     id="defs6" /><g
     transform="matrix(1.3333333,0,0,-1.3333333,0,457.88)"
     id="g10"><g
       transform="scale(0.1)"
       id="g12"><path
         id="path14"
         style="fill:#ffffff;fill-opacity:1;fill-rule:nonzero;stroke:none"
         d="M 2651.06,1055.47 2568.36,0.0117188 H 0 V 92.4219 H 462.168 V 3341.74 H 0 v 92.41 h 1405.81 v -92.41 H 958.305 V 92.4219 h 569.145 c 364.8,4.8476 578.84,4.8476 763.67,233.4571 150.75,184.82 204.34,418.281 277.24,729.591 h 82.7" /><path
         id="path16"
         style="fill:#ffffff;fill-opacity:1;fill-rule:nonzero;stroke:none"
         d="m 1704.69,1740.91 c 0,2.38 -1.21,4.75 -7.17,4.75 h -46.42 c -169.12,0 -440.57,-270.28 -440.57,-328.66 0,-7.12 4.75,-10.7 13.08,-10.7 67.87,0 252.46,129.78 354.83,205.98 40.49,41.67 83.37,83.38 125.04,125.05 0,0 1.21,1.16 1.21,3.58 z m -169.13,-172.66 c -102.37,-75.05 -251.24,-175.04 -325.03,-175.04 -25.05,0 -38.13,16.67 -38.13,44.04 0,96.46 163.12,319.12 489.41,319.12 16.67,0 35.71,-1.16 58.33,-1.16 26.21,0 57.17,1.16 91.71,5.9 l 2.37,-3.53 c -50.04,-44.09 -147.66,-145.3 -253.62,-250.08 -40.49,-40.45 -59.54,-69.04 -59.54,-84.54 0,-7.12 3.54,-10.71 13.08,-10.71 15.51,0 45.25,10.71 86.92,36.92 55.96,35.7 131,86.91 214.32,141.71 l 4.8,-9.56 c -82.16,-53.57 -154.83,-104.78 -215.54,-142.86 -41.66,-26.21 -82.16,-39.29 -110.74,-39.29 -28.59,0 -46.42,11.87 -46.42,35.71 0,22.62 16.67,55.95 54.75,97.62 l 33.33,35.75" /><path
         id="path18"
         style="fill:#ffffff;fill-opacity:1;fill-rule:nonzero;stroke:none"
         d="m 1989.16,1553.96 c 120.3,85.69 291.75,201.25 348.92,201.25 17.83,0 29.75,-7.18 29.75,-27.43 0,-114.28 -270.29,-267.91 -270.29,-313.15 0,-13.09 5.96,-19.05 17.88,-19.05 44.04,0 167.87,88.13 329.82,195.3 l 4.75,-9.56 c -158.37,-104.78 -288.16,-200.02 -350.07,-200.02 -25,0 -44.04,20.24 -44.04,57.16 0,79.74 280.99,266.7 280.99,300.03 0,2.42 -2.38,3.59 -5.96,3.59 -58.33,0 -257.21,-138.13 -378.66,-226.25 -32.12,-34.5 -70.25,-73.83 -114.29,-117.87 -53.58,0 -108.37,-5.96 -108.37,-5.96 l -3.54,7.17 c 76.21,55.95 354.82,291.7 354.82,342.91 0,3.58 -2.37,5.95 -7.17,5.95 -15.45,0 -134.53,-85.75 -197.66,-128.57 l -66.66,-45.25 -8.33,7.11 72.62,48.84 c 98.83,67.87 196.5,139.29 236.95,139.29 16.67,0 22.63,-10.71 22.63,-23.79 0,-26.21 -36.92,-77.42 -144.09,-191.7" /><path
         id="path20"
         style="fill:#fffffa;fill-opacity:1;fill-rule:nonzero;stroke:none"
         d="m 2891.73,1742.08 c -3.59,3.58 -27.42,3.58 -55.96,3.58 -169.13,0 -440.57,-270.28 -440.57,-328.66 0,-9.49 8.33,-14.3 22.62,-14.3 76.21,0 334.58,139.34 473.91,339.38 z m 72.62,314.37 h 15.45 c -44.03,329.82 -486.98,498.9 -857.31,498.9 -276.24,0 -513.19,-94.08 -513.19,-285.79 0,-123.83 185.74,-248.87 647.77,-248.87 163.12,0 331,11.92 469.12,22.63 97.66,7.16 180.99,13.13 238.16,13.13 z m -64.29,-303.67 c 50,76.21 83.33,160.75 83.33,248.87 0,26.21 -2.38,45.25 -2.38,45.25 h -16.66 c -57.17,0 -140.5,-5.96 -238.16,-13.08 -136.91,-10.7 -319.13,-22.62 -479.87,-22.62 -466.74,0 -656.07,129.79 -656.07,257.2 0,200.04 250.04,300.03 538.2,300.03 377.45,0 821.61,-171.45 862.11,-511.98 369.12,-7.18 517.94,-142.92 517.94,-317.96 0,-453.66 -579.86,-872.771 -1171.68,-872.771 -285.74,0 -576.32,97.633 -803.73,336.951 l 7.17,7.17 c 211.9,-217.91 483.4,-306.039 757.27,-306.039 597.73,0 1201.47,421.539 1201.47,834.689 0,170.29 -146.49,301.29 -507.28,308.41 0,0 2.38,-17.88 2.38,-41.66 0,-315.54 -432.2,-610.87 -584.61,-610.87 -32.17,0 -52.42,13.14 -52.42,42.88 0,96.46 163.12,319.12 489.41,319.12 11.92,0 36.91,0 53.58,-3.59" /><path
         id="path22"
         style="fill:#ffffff;fill-opacity:1;fill-rule:nonzero;stroke:none"
         d="m 6429.06,3341.74 h -447.5 V 92.4219 H 6468 V 0.0117188 H 5052.47 V 92.4219 h 462.17 V 3317.37 L 4498,0.0117188 h -97.38 L 3354.86,3341.74 V 92.4219 h 432.95 V 0.0117188 h -948.6 V 92.4219 h 394.02 V 3341.74 h -418.28 v 92.41 h 1031.2 l 802.6,-2578.06 778.33,2578.06 h 1001.98 v -92.41" /></g></g></svg>